<svg width="852" height="171" viewBox="0 0 852 171" fill="none" xmlns="http://www.w3.org/2000/svg">
<path d="M8.70958 132.491C5.54246 132.491 3.11056 131.134 1.41389 128.42C-0.282779 125.705 -0.452446 122.821 0.904891 119.768L48.5813 5.93749C50.278 1.97916 53.0492 0 56.895 0C60.967 0 63.7383 1.97916 65.2087 5.93749L113.055 120.107C114.299 123.274 114.073 126.158 112.376 128.759C110.793 131.247 108.361 132.491 105.08 132.491C103.384 132.491 101.744 132.039 100.16 131.134C98.6897 130.116 97.6151 128.759 96.9365 127.062L54.859 22.5625H59.6097L16.8536 127.062C16.0618 128.872 14.8741 130.229 13.2906 131.134C11.8201 132.039 10.2931 132.491 8.70958 132.491ZM17.7019 103.312L24.4886 88.7232H90.9981L97.7848 103.312H17.7019Z" fill="#101828"/>
<path d="M170.333 133.17C161.511 133.17 153.536 131.134 146.41 127.062C139.397 122.878 133.798 117.223 129.613 110.098C125.541 102.973 123.505 94.9434 123.505 86.0089C123.505 77.0744 125.372 69.1012 129.104 62.0893C132.95 54.9643 138.153 49.3661 144.714 45.2946C151.274 41.1101 158.683 39.0179 166.94 39.0179C173.614 39.0179 179.778 40.4315 185.434 43.2589C191.089 45.9732 195.84 49.7054 199.686 54.4554V8.65178C199.686 6.05059 200.478 3.95833 202.061 2.375C203.758 0.791667 205.85 0 208.339 0C210.94 0 213.033 0.791667 214.617 2.375C216.2 3.95833 216.992 6.05059 216.992 8.65178V86.0089C216.992 94.9434 214.899 102.973 210.714 110.098C206.642 117.223 201.1 122.878 194.087 127.062C187.074 131.134 179.156 133.17 170.333 133.17ZM170.333 117.902C176.102 117.902 181.249 116.545 185.773 113.83C190.298 111.003 193.861 107.158 196.462 102.295C199.064 97.4315 200.364 92.003 200.364 86.0089C200.364 79.9018 199.064 74.4732 196.462 69.7232C193.861 64.9732 190.298 61.2411 185.773 58.5268C181.249 55.6994 176.102 54.2857 170.333 54.2857C164.678 54.2857 159.531 55.6994 154.894 58.5268C150.369 61.2411 146.75 64.9732 144.035 69.7232C141.433 74.4732 140.133 79.9018 140.133 86.0089C140.133 92.003 141.433 97.4315 144.035 102.295C146.75 107.158 150.369 111.003 154.894 113.83C159.531 116.545 164.678 117.902 170.333 117.902Z" fill="#101828"/>
<path d="M273.805 132.321C270.299 132.321 267.584 130.455 265.661 126.723L229.692 50.8929C228.787 48.9702 228.674 47.1042 229.352 45.2946C230.144 43.372 231.615 41.9018 233.764 40.8839C235.687 39.8661 237.609 39.6964 239.532 40.375C241.568 41.0536 243.095 42.3542 244.113 44.2768L277.707 116.714H269.563L302.818 44.2768C303.836 42.3542 305.363 41.0536 307.399 40.375C309.548 39.6964 311.697 39.8661 313.847 40.8839C315.883 41.7887 317.24 43.2024 317.919 45.125C318.597 47.0476 318.484 48.9702 317.579 50.8929L281.61 126.723C279.913 130.455 277.312 132.321 273.805 132.321Z" fill="#101828"/>
<path d="M374.133 133.17C364.971 133.17 356.883 131.19 349.87 127.232C342.857 123.161 337.315 117.619 333.243 110.607C329.284 103.482 327.305 95.3393 327.305 86.1786C327.305 76.9048 329.284 68.7619 333.243 61.75C337.315 54.625 342.857 49.0833 349.87 45.125C356.883 41.0536 364.971 39.0179 374.133 39.0179C383.182 39.0179 391.213 41.0536 398.225 45.125C405.238 49.0833 410.724 54.625 414.683 61.75C418.755 68.7619 420.791 76.9048 420.791 86.1786C420.791 95.3393 418.812 103.482 414.853 110.607C410.894 117.619 405.408 123.161 398.395 127.232C391.382 131.19 383.295 133.17 374.133 133.17ZM374.133 117.902C380.014 117.902 385.218 116.545 389.742 113.83C394.267 111.116 397.773 107.384 400.261 102.634C402.863 97.8839 404.164 92.3988 404.164 86.1786C404.164 79.9583 402.863 74.4732 400.261 69.7232C397.773 64.8601 394.267 61.0714 389.742 58.3571C385.218 55.6429 380.014 54.2857 374.133 54.2857C368.251 54.2857 363.048 55.6429 358.523 58.3571C353.999 61.0714 350.436 64.8601 347.834 69.7232C345.233 74.4732 343.932 79.9583 343.932 86.1786C343.932 92.3988 345.233 97.8839 347.834 102.634C350.436 107.384 353.999 111.116 358.523 113.83C363.048 116.545 368.251 117.902 374.133 117.902Z" fill="#101828"/>
<path d="M485.232 133.17C476.748 133.17 469.226 131.19 462.666 127.232C456.218 123.161 451.128 117.619 447.396 110.607C443.663 103.482 441.797 95.3393 441.797 86.1786C441.797 76.9048 443.776 68.7619 447.735 61.75C451.807 54.625 457.35 49.0833 464.362 45.125C471.375 41.0536 479.463 39.0179 488.625 39.0179C497.674 39.0179 505.705 41.0536 512.718 45.125C519.731 49.0833 525.216 54.625 529.175 61.75C533.247 68.7619 535.283 76.9048 535.283 86.1786H525.273C525.273 95.3393 523.52 103.482 520.013 110.607C516.62 117.619 511.926 123.161 505.931 127.232C499.936 131.19 493.036 133.17 485.232 133.17ZM488.286 171C480.255 171 472.733 169.417 465.72 166.25C458.707 163.083 452.769 158.446 447.905 152.339C446.434 150.417 445.869 148.438 446.208 146.402C446.661 144.366 447.792 142.726 449.601 141.482C451.637 140.125 453.73 139.673 455.879 140.125C458.141 140.577 459.951 141.708 461.308 143.518C464.362 147.363 468.208 150.36 472.846 152.509C477.483 154.658 482.743 155.732 488.625 155.732C494.054 155.732 499.031 154.432 503.556 151.83C508.193 149.229 511.869 145.384 514.584 140.295C517.299 135.205 518.656 128.985 518.656 121.634V97.5446L524.255 82.6161L535.283 86.1786V122.821C535.283 131.756 533.304 139.842 529.345 147.08C525.386 154.432 519.844 160.256 512.718 164.554C505.705 168.851 497.561 171 488.286 171ZM488.625 117.902C494.507 117.902 499.71 116.545 504.234 113.83C508.759 111.116 512.265 107.384 514.754 102.634C517.355 97.8839 518.656 92.3988 518.656 86.1786C518.656 79.9583 517.355 74.4732 514.754 69.7232C512.265 64.8601 508.759 61.0714 504.234 58.3571C499.71 55.6429 494.507 54.2857 488.625 54.2857C482.743 54.2857 477.54 55.6429 473.015 58.3571C468.491 61.0714 464.928 64.8601 462.326 69.7232C459.725 74.4732 458.424 79.9583 458.424 86.1786C458.424 92.3988 459.725 97.8839 462.326 102.634C464.928 107.384 468.491 111.116 473.015 113.83C477.54 116.545 482.743 117.902 488.625 117.902Z" fill="#101828"/>
<path d="M599.724 133.17C591.466 133.17 584.058 131.134 577.497 127.062C570.937 122.878 565.734 117.28 561.888 110.268C558.155 103.143 556.289 95.1131 556.289 86.1786C556.289 77.244 558.325 69.2143 562.397 62.0893C566.582 54.9643 572.181 49.3661 579.194 45.2946C586.32 41.1101 594.294 39.0179 603.117 39.0179C611.94 39.0179 619.857 41.1101 626.87 45.2946C633.883 49.3661 639.426 54.9643 643.498 62.0893C647.683 69.2143 649.775 77.244 649.775 86.1786H643.158C643.158 95.1131 641.236 103.143 637.39 110.268C633.657 117.28 628.51 122.878 621.95 127.062C615.39 131.134 607.981 133.17 599.724 133.17ZM603.117 117.902C608.886 117.902 614.032 116.545 618.557 113.83C623.081 111.003 626.644 107.214 629.246 102.464C631.847 97.6012 633.148 92.1726 633.148 86.1786C633.148 80.0714 631.847 74.6429 629.246 69.8929C626.644 65.0298 623.081 61.2411 618.557 58.5268C614.032 55.6994 608.886 54.2857 603.117 54.2857C597.461 54.2857 592.315 55.6994 587.677 58.5268C583.153 61.2411 579.533 65.0298 576.819 69.8929C574.217 74.6429 572.916 80.0714 572.916 86.1786C572.916 92.1726 574.217 97.6012 576.819 102.464C579.533 107.214 583.153 111.003 587.677 113.83C592.315 116.545 597.461 117.902 603.117 117.902ZM641.122 132.661C638.634 132.661 636.541 131.869 634.845 130.286C633.261 128.589 632.469 126.497 632.469 124.009V98.0536L635.693 80.0714L649.775 86.1786V124.009C649.775 126.497 648.927 128.589 647.23 130.286C645.647 131.869 643.611 132.661 641.122 132.661Z" fill="#101828"/>
<path d="M680.452 135.205C677.285 135.205 674.514 134.074 672.138 131.812C669.876 129.438 668.745 126.667 668.745 123.5C668.745 120.22 669.876 117.449 672.138 115.188C674.514 112.812 677.285 111.625 680.452 111.625C683.732 111.625 686.504 112.812 688.766 115.188C691.028 117.449 692.159 120.22 692.159 123.5C692.159 126.667 691.028 129.438 688.766 131.812C686.504 134.074 683.732 135.205 680.452 135.205Z" fill="#FF8040"/>
<path d="M754.644 133.17C746.387 133.17 738.978 131.134 732.418 127.062C725.857 122.878 720.654 117.28 716.809 110.268C713.076 103.143 711.21 95.1131 711.21 86.1786C711.21 77.244 713.245 69.2143 717.318 62.0893C721.503 54.9643 727.102 49.3661 734.115 45.2946C741.241 41.1101 749.215 39.0179 758.038 39.0179C766.86 39.0179 774.778 41.1101 781.791 45.2946C788.804 49.3661 794.346 54.9643 798.418 62.0893C802.604 69.2143 804.696 77.244 804.696 86.1786H798.079C798.079 95.1131 796.156 103.143 792.31 110.268C788.578 117.28 783.431 122.878 776.871 127.062C770.31 131.134 762.901 133.17 754.644 133.17ZM758.038 117.902C763.806 117.902 768.953 116.545 773.477 113.83C778.002 111.003 781.565 107.214 784.166 102.464C786.768 97.6012 788.069 92.1726 788.069 86.1786C788.069 80.0714 786.768 74.6429 784.166 69.8929C781.565 65.0298 778.002 61.2411 773.477 58.5268C768.953 55.6994 763.806 54.2857 758.038 54.2857C752.382 54.2857 747.236 55.6994 742.598 58.5268C738.073 61.2411 734.454 65.0298 731.739 69.8929C729.138 74.6429 727.837 80.0714 727.837 86.1786C727.837 92.1726 729.138 97.6012 731.739 102.464C734.454 107.214 738.073 111.003 742.598 113.83C747.236 116.545 752.382 117.902 758.038 117.902ZM796.043 132.661C793.555 132.661 791.462 131.869 789.765 130.286C788.182 128.589 787.39 126.497 787.39 124.009V98.0536L790.614 80.0714L804.696 86.1786V124.009C804.696 126.497 803.848 128.589 802.151 130.286C800.568 131.869 798.532 132.661 796.043 132.661Z" fill="#101828"/>
<path d="M840.802 132.491C838.314 132.491 836.221 131.699 834.524 130.116C832.941 128.42 832.149 126.327 832.149 123.839V48.3482C832.149 45.747 832.941 43.6548 834.524 42.0714C836.221 40.4881 838.314 39.6964 840.802 39.6964C843.404 39.6964 845.496 40.4881 847.08 42.0714C848.663 43.6548 849.455 45.747 849.455 48.3482V123.839C849.455 126.327 848.663 128.42 847.08 130.116C845.496 131.699 843.404 132.491 840.802 132.491ZM840.802 24.5982C837.748 24.5982 835.09 23.5238 832.828 21.375C830.679 19.1131 829.604 16.4554 829.604 13.4018C829.604 10.3482 830.679 7.74702 832.828 5.59821C835.09 3.33631 837.748 2.20536 840.802 2.20536C843.856 2.20536 846.458 3.33631 848.607 5.59821C850.869 7.74702 852 10.3482 852 13.4018C852 16.4554 850.869 19.1131 848.607 21.375C846.458 23.5238 843.856 24.5982 840.802 24.5982Z" fill="#101828"/>
</svg>
