<svg width="228" height="242" viewBox="0 0 228 242" fill="none" xmlns="http://www.w3.org/2000/svg">
<g filter="url(#filter0_d_17280_20976)">
<rect x="4" width="220" height="234" rx="10" fill="#1036FE"/>
</g>
<path d="M69.7638 62.75C69.7638 62.75 89.2638 35.3576 112.764 40.3576C136.264 45.3577 148.764 73.3576 148.764 73.3576L157.764 93.8576L166.264 116.358L177.25 147.75C177.25 147.75 173.75 170.25 169.25 171.75C164.75 173.25 158.25 163.75 158.25 163.75L151.75 150.75L148.75 141.75L145.264 132.358L135.764 106.024C135.764 106.024 119.264 63.8576 106.264 65.8576C93.2638 67.8576 79.2638 91.8576 79.2638 91.8576L69.7638 107.858L62.2638 123.358L55.7639 139.858C55.7639 139.858 45.2638 172.691 49.2638 181.358C53.2639 190.024 73.7638 183.858 73.7638 183.858L63.7638 190.858L54.2638 195.858C54.2638 195.858 38.7638 202.358 30.2638 193.858C21.7638 185.358 24.7638 165.358 24.7638 165.358L26.2638 155.358L28.7638 144.858L35.7638 124.358L45.2638 102.358L52.2502 88.6423L56.2502 81.75L61.2502 74.25L69.7638 62.75Z" fill="white"/>
<path d="M82.2951 49.4832C90.1281 43.2437 100.956 37.5898 112.816 40.1131C124.648 42.6307 133.694 50.9329 139.772 58.577C142.813 62.4018 145.117 66.0697 146.66 68.7811C147.432 70.1369 148.015 71.2541 148.404 72.033C148.599 72.4224 148.746 72.7274 148.844 72.9353C148.893 73.0391 148.93 73.1188 148.954 73.1727C148.967 73.1996 148.976 73.2203 148.983 73.2342C148.986 73.241 148.988 73.2462 148.989 73.2498L148.991 73.2537V73.2557C148.988 73.2573 148.966 73.2672 148.808 73.3377L148.991 73.2557L148.992 73.2566L157.992 93.7566L157.998 93.7693L166.497 116.269L166.5 116.275L177.507 147.726L177.497 147.789L177.496 147.793C177.496 147.796 177.495 147.8 177.494 147.805C177.493 147.816 177.49 147.832 177.486 147.853C177.48 147.896 177.47 147.96 177.456 148.043C177.429 148.208 177.389 148.452 177.337 148.762C177.232 149.381 177.079 150.267 176.879 151.335C176.48 153.47 175.901 156.335 175.181 159.248C174.461 162.158 173.598 165.125 172.63 167.463C172.146 168.631 171.632 169.651 171.091 170.43C170.555 171.203 169.97 171.774 169.329 171.987C168.108 172.394 166.781 172.046 165.513 171.352C164.241 170.656 162.987 169.59 161.886 168.489C160.783 167.386 159.823 166.237 159.14 165.365C158.798 164.929 158.524 164.561 158.336 164.303C158.242 164.173 158.17 164.07 158.12 164C158.096 163.965 158.076 163.938 158.064 163.92C158.057 163.911 158.052 163.903 158.049 163.898C158.047 163.896 158.045 163.893 158.045 163.893L158.044 163.891L158.034 163.877L158.027 163.862L151.519 150.846L151.513 150.829L148.513 141.829L145.029 132.444L145.028 132.442L135.528 106.108L135.52 106.085C135.512 106.065 135.499 106.035 135.484 105.995C135.452 105.916 135.405 105.798 135.343 105.644C135.219 105.337 135.037 104.885 134.799 104.311C134.323 103.164 133.628 101.527 132.754 99.5682C131.006 95.6504 128.54 90.4492 125.67 85.3123C122.799 80.1728 119.528 75.1092 116.173 71.4588C114.495 69.6338 112.805 68.1704 111.141 67.2264C109.477 66.2828 107.854 65.8655 106.302 66.1043C103.115 66.5946 99.8437 68.4395 96.7179 70.9588C93.5955 73.4754 90.6387 76.6488 88.0822 79.7664C85.5265 82.8831 83.3749 85.9381 81.8625 88.2146C81.1064 89.3526 80.5106 90.2958 80.1037 90.9539C79.9002 91.283 79.744 91.5412 79.6388 91.7166C79.5864 91.8041 79.5463 91.8708 79.5197 91.9158C79.5064 91.9383 79.4961 91.9553 79.4894 91.9666C79.4862 91.972 79.4842 91.9765 79.4826 91.9793L79.4806 91.9822L79.4796 91.9832L79.4787 91.9852L69.9826 107.977L62.4923 123.456L56.0002 139.938C55.9989 139.942 55.9967 139.949 55.9943 139.957C55.9893 139.972 55.9816 139.996 55.9718 140.027C55.9522 140.089 55.9238 140.182 55.8859 140.304C55.8101 140.546 55.6991 140.902 55.5597 141.358C55.2808 142.272 54.8864 143.587 54.4259 145.192C53.5049 148.403 52.3191 152.773 51.258 157.413C50.1965 162.054 49.2614 166.959 48.841 171.241C48.6308 173.382 48.5499 175.362 48.6447 177.072C48.7396 178.786 49.0095 180.211 49.4904 181.253C50.4471 183.326 52.3975 184.533 54.8419 185.163C57.2874 185.793 60.1931 185.836 62.9933 185.608C65.7904 185.38 68.466 184.883 70.4435 184.442C71.4319 184.222 72.2452 184.015 72.8107 183.864C73.0934 183.789 73.3142 183.727 73.464 183.684C73.539 183.663 73.5966 183.647 73.6349 183.636C73.654 183.63 73.6683 183.625 73.6779 183.622C73.6825 183.62 73.6326 183.619 73.6349 183.618H73.6906L74 183.75L63.9074 191.062L63.8937 191.071L63.88 191.079L54.38 196.079L54.3703 196.084L54.3605 196.088L54.3595 196.089L54.3566 196.09C54.3545 196.091 54.3515 196.092 54.3478 196.094C54.34 196.097 54.3285 196.101 54.3136 196.107C54.2832 196.12 54.2376 196.138 54.1789 196.161C54.0615 196.207 53.8892 196.274 53.6671 196.355C53.2227 196.518 52.5795 196.74 51.7814 196.98C50.1856 197.46 47.9671 198.01 45.4796 198.294C40.5151 198.859 34.418 198.365 30.0871 194.034C25.7665 189.713 24.3893 182.504 24.0763 176.433C23.9194 173.389 24.0299 170.613 24.1789 168.597C24.2534 167.59 24.3377 166.771 24.4035 166.205C24.4363 165.922 24.4644 165.701 24.4845 165.552C24.4946 165.477 24.5025 165.418 24.508 165.38C24.5107 165.36 24.5134 165.346 24.5148 165.336C24.5155 165.331 24.5154 165.328 24.5158 165.325L24.5168 165.322V165.32L26.0168 155.32L26.0177 155.31L26.0207 155.3L28.5207 144.8L28.5236 144.788L28.5275 144.777L35.5275 124.277L35.5304 124.267L35.5343 124.259L45.0343 102.259L45.0373 102.251L45.0412 102.244L52.0275 88.5291L52.0334 88.5164L56.0343 81.6248L56.0421 81.6111L61.0421 74.1111L61.049 74.1014L69.5627 62.6014L69.5636 62.5994C69.5661 62.5959 69.5705 62.5905 69.5753 62.5838C69.5851 62.5703 69.5994 62.5502 69.6183 62.5242C69.6565 62.4718 69.7134 62.3941 69.7882 62.2937C69.9379 62.0929 70.1597 61.7995 70.4503 61.4285C71.0321 60.6859 71.8891 59.6316 72.9904 58.3826C75.1924 55.8851 78.3745 52.6062 82.2951 49.4832ZM112.712 40.6023C101.072 38.1257 90.3985 43.6681 82.6066 49.8748C78.7151 52.9747 75.5539 56.2315 73.3654 58.7137C72.2714 59.9544 71.4213 61.0012 70.8449 61.7371C70.5567 62.105 70.3361 62.3947 70.1886 62.5926C70.1149 62.6915 70.0597 62.7682 70.0226 62.8191C70.0042 62.8444 69.9898 62.863 69.9806 62.8758C69.9761 62.8821 69.9731 62.8873 69.9709 62.8904L69.9679 62.8943L69.965 62.8992L61.4513 74.3992L56.4582 81.8885L52.4718 88.7547L52.4728 88.7557L45.4894 102.465L35.9953 124.451L29.005 144.924L26.508 155.408L25.0109 165.394V165.398C25.0106 165.4 25.0096 165.404 25.0089 165.408L24.9796 165.618C24.9599 165.765 24.9321 165.983 24.8996 166.262C24.8345 166.823 24.7508 167.634 24.6769 168.634C24.529 170.634 24.4208 173.389 24.5763 176.407C24.8884 182.461 26.2615 189.501 30.4406 193.68C34.6096 197.849 40.5125 198.356 45.423 197.797C47.8729 197.518 50.0608 196.974 51.6369 196.501C52.4246 196.264 53.0589 196.045 53.4953 195.886C53.7135 195.806 53.8824 195.741 53.9962 195.696C54.0531 195.674 54.0964 195.656 54.1252 195.644L54.1574 195.632L63.633 190.643L72.4484 184.472C71.933 184.605 71.2918 184.765 70.5529 184.929C68.5618 185.374 65.862 185.877 63.0343 186.107C60.2097 186.337 57.2402 186.297 54.7169 185.646C52.1929 184.995 50.0806 183.723 49.0373 181.463C48.5182 180.338 48.2412 178.841 48.1447 177.1C48.048 175.356 48.1312 173.348 48.3429 171.192C48.7663 166.88 49.7062 161.952 50.7697 157.302C51.8335 152.65 53.0228 148.271 53.9455 145.054C54.4068 143.446 54.8016 142.129 55.0812 141.213C55.221 140.755 55.3323 140.397 55.4084 140.154C55.4464 140.033 55.4754 139.939 55.4953 139.877C55.5052 139.845 55.5127 139.821 55.5177 139.805C55.5202 139.798 55.5223 139.792 55.5236 139.788C55.5242 139.786 55.5255 139.783 55.5255 139.783V139.781L55.5285 139.773L55.5314 139.766L62.0314 123.266L62.0343 123.258L62.0392 123.249L69.5392 107.749L69.5431 107.739L69.549 107.73L79.049 91.7303L79.0509 91.7273C79.0527 91.7243 79.0553 91.7195 79.0587 91.7137C79.0656 91.702 79.0756 91.6846 79.089 91.6619C79.1162 91.616 79.157 91.5474 79.2101 91.4588C79.3163 91.2817 79.4734 91.022 79.6779 90.6912C80.0873 90.0291 80.687 89.0814 81.4464 87.9383C82.9652 85.6523 85.1262 82.5823 87.6955 79.449C90.2639 76.3167 93.2447 73.115 96.4035 70.5691C99.5589 68.026 102.913 66.1198 106.226 65.6102C107.923 65.349 109.66 65.8123 111.387 66.7918C113.113 67.7708 114.844 69.2743 116.541 71.1209C119.936 74.814 123.228 79.9173 126.107 85.0691C128.986 90.2236 131.459 95.4392 133.211 99.365C134.087 101.328 134.783 102.969 135.26 104.12C135.499 104.695 135.683 105.148 135.808 105.457C135.87 105.611 135.917 105.73 135.948 105.81C135.964 105.85 135.976 105.881 135.985 105.901C135.989 105.911 135.991 105.919 135.993 105.925C135.994 105.927 135.996 105.93 135.996 105.93V105.932L135.999 105.939L145.498 132.27L148.985 141.663L148.987 141.671L151.983 150.656L158.464 163.62C158.467 163.624 158.471 163.629 158.475 163.635C158.487 163.652 158.504 163.679 158.528 163.713C158.577 163.781 158.648 163.881 158.74 164.009C158.925 164.263 159.195 164.626 159.532 165.056C160.208 165.919 161.155 167.051 162.239 168.136C163.326 169.222 164.541 170.251 165.753 170.914C166.969 171.579 168.142 171.855 169.171 171.512C169.656 171.351 170.164 170.89 170.681 170.145C171.193 169.407 171.69 168.423 172.167 167.271C173.121 164.968 173.977 162.03 174.694 159.128C175.412 156.228 175.989 153.373 176.387 151.243C176.586 150.178 176.741 149.295 176.845 148.679C176.897 148.37 176.936 148.127 176.963 147.963C176.976 147.881 176.987 147.817 176.993 147.775L166.029 116.446L157.529 93.9461L148.534 73.4578L148.533 73.4549C148.532 73.4517 148.529 73.4467 148.527 73.4402C148.521 73.4272 148.512 73.4075 148.5 73.3816C148.476 73.3293 148.44 73.2506 148.392 73.1482C148.295 72.9436 148.15 72.6424 147.957 72.2566C147.571 71.4848 146.993 70.3754 146.226 69.0281C144.691 66.3334 142.402 62.6884 139.381 58.8885C133.334 51.2827 124.379 43.0849 112.712 40.6023Z" fill="white"/>
<path d="M119.586 128.976C124.904 135.476 120.086 143.976 116.586 147.476L95.5861 165.976L73.7502 183.75C73.7502 183.75 63.5861 188.976 54.2502 185.75C44.9142 182.524 48.7502 171.75 48.7502 171.75L72.0861 153.476L95.5861 133.976C107.586 122.976 114.268 122.476 119.586 128.976Z" fill="white"/>
<path d="M186.75 35C196.277 35 204 42.7231 204 52.25C204 61.7769 196.277 69.5 186.75 69.5C177.223 69.5 169.5 61.7769 169.5 52.25C169.5 42.7231 177.223 35 186.75 35Z" fill="white"/>
<path d="M203.5 52.25C203.5 42.9992 196.001 35.5 186.75 35.5C177.499 35.5 170 42.9992 170 52.25C170 61.5008 177.499 69 186.75 69V69.5C177.223 69.5 169.5 61.7769 169.5 52.25C169.5 42.7231 177.223 35 186.75 35C196.277 35 204 42.7231 204 52.25C204 61.7769 196.277 69.5 186.75 69.5V69C196.001 69 203.5 61.5008 203.5 52.25Z" fill="white"/>
<path d="M110.048 124.668C112.011 124.316 113.771 124.523 115.382 125.24C116.989 125.956 118.433 127.173 119.779 128.818C122.505 132.15 122.625 135.992 121.633 139.421C120.642 142.843 118.537 145.879 116.763 147.653L116.758 147.658L116.751 147.664L95.7441 166.17L73.9081 183.944L73.8876 183.96L73.8642 183.973L73.8329 183.988C73.8127 183.998 74.1367 183.771 74.0975 183.79C74.0192 183.828 73.5499 184.126 73.4003 184.195C73.1007 184.334 72.6629 184.527 72.1093 184.748C71.0021 185.191 69.4283 185.748 67.5605 186.203C63.8294 187.112 58.9005 187.621 54.1689 185.986C51.7859 185.163 50.2286 183.851 49.2431 182.338C48.26 180.828 47.8559 179.134 47.7499 177.557C47.644 175.98 47.8352 174.509 48.0517 173.435C48.1601 172.897 48.275 172.457 48.3632 172.15C48.4073 171.997 48.445 171.877 48.4716 171.795C48.4849 171.754 48.4955 171.722 48.5029 171.7C48.5065 171.69 48.5097 171.681 48.5117 171.676C48.5126 171.673 48.5136 171.669 48.5136 171.669L48.5146 171.667L48.539 171.598L48.5956 171.553L71.9316 153.279L95.4169 133.792C101.423 128.286 106.138 125.369 110.048 124.668ZM115.179 125.697C113.666 125.024 112.008 124.825 110.136 125.16C106.375 125.834 101.749 128.666 95.7548 134.16L95.746 134.169L72.246 153.669L72.2402 153.673L48.9628 171.9C48.9582 171.914 48.9531 171.931 48.9472 171.949C48.9222 172.026 48.8861 172.141 48.8437 172.288C48.7586 172.583 48.6473 173.011 48.5419 173.533C48.331 174.58 48.1469 176.004 48.249 177.523C48.351 179.043 48.7386 180.648 49.662 182.065C50.5831 183.479 52.0474 184.724 54.332 185.514C58.9361 187.105 63.7575 186.614 67.4423 185.717C69.2824 185.269 70.8336 184.72 71.9238 184.284C72.4685 184.066 72.8978 183.876 73.1904 183.741C73.3367 183.674 73.4492 183.62 73.5243 183.583C73.5617 183.565 73.5896 183.55 73.6083 183.541L73.6132 183.538L95.4286 165.782L116.411 147.297C118.136 145.571 120.19 142.609 121.153 139.282C122.115 135.961 121.985 132.303 119.393 129.135C118.08 127.53 116.694 126.372 115.179 125.697Z" fill="white"/>
<path d="M187.75 82.75C175.75 82.75 175.75 96.25 175.75 96.25C176.25 120.917 176.25 168.45 169.25 171.25C162.25 174.05 151.25 149.25 151.25 149.25C151.25 149.25 159.206 175.229 163.75 183.75C167.75 191.25 171.728 196.476 182.25 195.75C196.75 194.75 197.25 159.75 197.25 159.75L198.25 96.75C198.25 96.75 199.75 82.75 187.75 82.75Z" fill="white"/>
<path d="M187.75 82.5C190.802 82.5 193.018 83.392 194.615 84.7471C196.208 86.0987 197.167 87.895 197.738 89.6738C198.31 91.4527 198.5 93.2273 198.547 94.5537C198.571 95.2177 198.559 95.7717 198.541 96.1602C198.532 96.3543 198.521 96.5073 198.513 96.6123C198.509 96.6648 198.506 96.7057 198.503 96.7334C198.502 96.747 198.501 96.7574 198.5 96.7646L197.5 159.754V159.779C197.5 159.796 197.499 159.822 197.498 159.855C197.497 159.922 197.495 160.021 197.491 160.15C197.484 160.408 197.471 160.786 197.45 161.267C197.408 162.228 197.332 163.603 197.194 165.255C196.921 168.558 196.404 172.976 195.432 177.428C194.461 181.876 193.032 186.377 190.925 189.833C188.818 193.29 186.007 195.741 182.268 195.999C176.959 196.365 173.27 195.23 170.402 193.033C167.547 190.845 165.531 187.62 163.529 183.867C161.246 179.585 158.114 170.94 155.559 163.385C154.28 159.603 153.143 156.088 152.326 153.519C151.918 152.234 151.589 151.184 151.362 150.457C151.249 150.093 151.161 149.81 151.102 149.617C151.072 149.521 151.05 149.448 151.034 149.398C151.027 149.374 151.021 149.354 151.017 149.342C151.015 149.336 151.014 149.331 151.013 149.328L151.012 149.324L151.011 149.323L151.479 149.148L151.481 149.153C151.482 149.156 151.484 149.16 151.486 149.166C151.492 149.178 151.499 149.196 151.51 149.219C151.531 149.265 151.562 149.335 151.603 149.425C151.685 149.605 151.806 149.869 151.963 150.204C152.277 150.875 152.733 151.831 153.302 152.97C154.441 155.247 156.031 158.252 157.838 161.168C159.647 164.087 161.665 166.904 163.657 168.813C164.654 169.768 165.633 170.484 166.565 170.878C167.492 171.27 168.359 171.337 169.157 171.018C169.93 170.709 170.662 169.749 171.328 168.14C171.988 166.547 172.556 164.383 173.043 161.772C174.017 156.553 174.657 149.591 175.063 141.937C175.875 126.629 175.75 108.587 175.5 96.2549V96.208C175.501 96.1812 175.502 96.1416 175.503 96.0908C175.506 95.9894 175.513 95.8417 175.525 95.6543C175.548 95.2792 175.596 94.7442 175.691 94.1035C175.88 92.8235 176.26 91.1126 177.022 89.3984C177.784 87.6838 178.932 85.9572 180.662 84.6592C182.396 83.3589 184.7 82.5 187.75 82.5ZM187.75 83C184.801 83 182.604 83.8287 180.963 85.0596C179.319 86.2928 178.217 87.9412 177.479 89.6016C176.741 91.262 176.37 92.9256 176.185 94.1768C176.092 94.8016 176.046 95.3223 176.023 95.6855C176.011 95.8669 176.006 96.0092 176.003 96.1055C176.002 96.1536 176.001 96.1905 176 96.2148V96.25C176.25 108.585 176.376 126.639 175.563 141.963C175.156 149.624 174.515 156.613 173.535 161.864C173.046 164.489 172.47 166.692 171.791 168.331C171.12 169.953 170.32 171.091 169.343 171.482C168.391 171.863 167.383 171.767 166.369 171.339C165.36 170.912 164.331 170.15 163.312 169.174C161.273 167.221 159.228 164.362 157.412 161.432C155.594 158.498 153.997 155.478 152.855 153.193C152.751 152.987 152.654 152.785 152.559 152.591C152.637 152.838 152.717 153.097 152.803 153.366C153.619 155.934 154.755 159.447 156.032 163.225C158.591 170.789 161.71 179.393 163.971 183.632C165.969 187.379 167.943 190.518 170.706 192.636C173.458 194.745 177.019 195.86 182.233 195.501C185.743 195.259 188.433 192.96 190.497 189.573C192.562 186.186 193.977 181.748 194.944 177.321C195.909 172.898 196.424 168.504 196.696 165.214C196.833 163.569 196.908 162.201 196.95 161.245C196.971 160.767 196.984 160.391 196.991 160.136C196.995 160.008 196.997 159.91 196.998 159.845C196.999 159.812 197 159.787 197 159.771V159.747L198 96.7461V96.7344L198.001 96.7236L198.002 96.7217C198.002 96.7217 198.002 96.7179 198.002 96.7148C198.003 96.7087 198.004 96.6992 198.005 96.6865C198.007 96.6612 198.011 96.6232 198.015 96.5732C198.023 96.4732 198.033 96.3252 198.041 96.1367C198.058 95.7596 198.07 95.2196 198.047 94.5713C198.001 93.2728 197.815 91.5471 197.262 89.8262C196.709 88.1053 195.792 86.4012 194.291 85.1279C192.794 83.8582 190.698 83 187.75 83Z" fill="white"/>
<defs>
<filter id="filter0_d_17280_20976" x="0" y="0" width="228" height="242" filterUnits="userSpaceOnUse" color-interpolation-filters="sRGB">
<feFlood flood-opacity="0" result="BackgroundImageFix"/>
<feColorMatrix in="SourceAlpha" type="matrix" values="0 0 0 0 0 0 0 0 0 0 0 0 0 0 0 0 0 0 127 0" result="hardAlpha"/>
<feOffset dy="4"/>
<feGaussianBlur stdDeviation="2"/>
<feComposite in2="hardAlpha" operator="out"/>
<feColorMatrix type="matrix" values="0 0 0 0 0 0 0 0 0 0 0 0 0 0 0 0 0 0 0.25 0"/>
<feBlend mode="normal" in2="BackgroundImageFix" result="effect1_dropShadow_17280_20976"/>
<feBlend mode="normal" in="SourceGraphic" in2="effect1_dropShadow_17280_20976" result="shape"/>
</filter>
</defs>
</svg>
