<svg width="180" height="164" viewBox="0 0 180 164" fill="none" xmlns="http://www.w3.org/2000/svg">
<path d="M45.7638 27.75C45.7638 27.75 65.2638 0.357592 88.7638 5.35764C112.264 10.3577 124.764 38.3576 124.764 38.3576L133.764 58.8576L142.264 81.3576L153.25 112.75C153.25 112.75 149.75 135.25 145.25 136.75C140.75 138.25 134.25 128.75 134.25 128.75L127.75 115.75L124.75 106.75L121.264 97.3576L111.764 71.0237C111.764 71.0237 95.2638 28.8576 82.2638 30.8576C69.2638 32.8576 55.2638 56.8576 55.2638 56.8576L45.7638 72.8576L38.2638 88.3576L31.7639 104.858C31.7639 104.858 21.2638 137.691 25.2638 146.358C29.2639 155.024 49.7638 148.858 49.7638 148.858L39.7638 155.858L30.2638 160.858C30.2638 160.858 14.7638 167.358 6.2638 158.858C-2.23619 150.358 0.763837 130.358 0.763837 130.358L2.26383 120.358L4.76382 109.858L11.7638 89.3576L21.2638 67.3576L28.2502 53.6423L32.2502 46.75L37.2502 39.25L45.7638 27.75Z" fill="url(#paint0_linear_17276_76620)"/>
<path d="M58.2951 14.4832C66.1281 8.24371 76.9557 2.58977 88.8156 5.11308C100.648 7.63067 109.694 15.9329 115.772 23.577C118.813 27.4018 121.117 31.0697 122.66 33.7811C123.432 35.1369 124.015 36.2541 124.404 37.033C124.599 37.4224 124.746 37.7274 124.844 37.9353C124.893 38.0391 124.93 38.1188 124.954 38.1727C124.967 38.1996 124.976 38.2203 124.983 38.2342C124.986 38.241 124.988 38.2462 124.989 38.2498L124.991 38.2537V38.2557C124.988 38.2573 124.966 38.2672 124.808 38.3377L124.991 38.2557L124.992 38.2566L133.992 58.7566L133.998 58.7693L142.497 81.2693L142.5 81.2752L153.507 112.726L153.497 112.789L153.496 112.793C153.496 112.796 153.495 112.8 153.494 112.805C153.493 112.816 153.49 112.832 153.486 112.853C153.48 112.896 153.47 112.96 153.456 113.043C153.429 113.208 153.389 113.452 153.337 113.762C153.232 114.381 153.079 115.267 152.879 116.335C152.48 118.47 151.901 121.335 151.181 124.248C150.461 127.158 149.598 130.125 148.63 132.463C148.146 133.631 147.632 134.651 147.091 135.43C146.555 136.203 145.97 136.774 145.329 136.987C144.108 137.394 142.781 137.046 141.513 136.352C140.241 135.656 138.987 134.59 137.886 133.489C136.783 132.386 135.823 131.237 135.14 130.365C134.798 129.929 134.524 129.561 134.336 129.303C134.242 129.173 134.17 129.07 134.12 129C134.096 128.965 134.076 128.938 134.064 128.92C134.057 128.911 134.052 128.903 134.049 128.898C134.047 128.896 134.045 128.893 134.045 128.893L134.044 128.891L134.034 128.877L134.027 128.862L127.519 115.846L127.513 115.829L124.513 106.829L121.029 97.4441L121.028 97.4422L111.528 71.1082L111.52 71.0848C111.512 71.0647 111.499 71.0346 111.484 70.9949C111.452 70.9156 111.405 70.798 111.343 70.6443C111.219 70.3368 111.037 69.885 110.799 69.3113C110.323 68.164 109.628 66.5268 108.754 64.5682C107.006 60.6504 104.54 55.4492 101.67 50.3123C98.7985 45.1728 95.5283 40.1092 92.173 36.4588C90.4955 34.6338 88.8051 33.1704 87.1408 32.2264C85.4772 31.2828 83.8544 30.8655 82.3019 31.1043C79.1149 31.5946 75.8437 33.4395 72.7179 35.9588C69.5955 38.4754 66.6387 41.6488 64.0822 44.7664C61.5265 47.8831 59.3749 50.9381 57.8625 53.2146C57.1064 54.3526 56.5106 55.2958 56.1037 55.9539C55.9002 56.283 55.744 56.5412 55.6388 56.7166C55.5864 56.8041 55.5463 56.8708 55.5197 56.9158C55.5064 56.9383 55.4961 56.9553 55.4894 56.9666C55.4862 56.972 55.4842 56.9765 55.4826 56.9793L55.4806 56.9822L55.4796 56.9832L55.4787 56.9852L45.9826 72.9773L38.4923 88.4559L32.0002 104.938C31.9989 104.942 31.9967 104.949 31.9943 104.957C31.9893 104.972 31.9816 104.996 31.9718 105.027C31.9522 105.089 31.9238 105.182 31.8859 105.304C31.8101 105.546 31.6991 105.902 31.5597 106.358C31.2808 107.272 30.8864 108.587 30.4259 110.192C29.5049 113.403 28.3191 117.773 27.258 122.413C26.1965 127.054 25.2614 131.959 24.841 136.241C24.6308 138.382 24.5499 140.362 24.6447 142.072C24.7396 143.786 25.0095 145.211 25.4904 146.253C26.4471 148.326 28.3975 149.533 30.8419 150.163C33.2874 150.793 36.1931 150.836 38.9933 150.608C41.7904 150.38 44.466 149.883 46.4435 149.442C47.4319 149.222 48.2452 149.015 48.8107 148.864C49.0934 148.789 49.3142 148.727 49.464 148.684C49.539 148.663 49.5966 148.647 49.6349 148.636C49.654 148.63 49.6683 148.625 49.6779 148.622C49.6825 148.62 49.6326 148.619 49.6349 148.618H49.6906L50 148.75L39.9074 156.062L39.8937 156.071L39.88 156.079L30.38 161.079L30.3703 161.084L30.3605 161.088L30.3595 161.089L30.3566 161.09C30.3545 161.091 30.3515 161.092 30.3478 161.094C30.34 161.097 30.3285 161.101 30.3136 161.107C30.2832 161.12 30.2376 161.138 30.1789 161.161C30.0615 161.207 29.8892 161.274 29.6671 161.355C29.2227 161.518 28.5795 161.74 27.7814 161.98C26.1856 162.46 23.9671 163.01 21.4796 163.294C16.5151 163.859 10.418 163.365 6.08707 159.034C1.76652 154.713 0.389272 147.504 0.0763232 141.433C-0.0805903 138.389 0.0299014 135.613 0.178862 133.597C0.253364 132.59 0.337691 131.771 0.403472 131.205C0.436333 130.922 0.464449 130.701 0.484526 130.552C0.494567 130.477 0.502455 130.418 0.507964 130.38C0.510694 130.36 0.513353 130.346 0.5148 130.336C0.51547 130.331 0.515404 130.328 0.515776 130.325L0.516753 130.322V130.32L2.01675 120.32L2.01773 120.31L2.02066 120.3L4.52066 109.8L4.52359 109.788L4.52749 109.777L11.5275 89.2771L11.5304 89.2674L11.5343 89.2586L21.0343 67.2586L21.0373 67.2508L21.0412 67.2439L28.0275 53.5291L28.0334 53.5164L32.0343 46.6248L32.0421 46.6111L37.0421 39.1111L37.049 39.1014L45.5627 27.6014L45.5636 27.5994C45.5661 27.5959 45.5705 27.5905 45.5753 27.5838C45.5851 27.5703 45.5994 27.5502 45.6183 27.5242C45.6565 27.4718 45.7134 27.3941 45.7882 27.2937C45.9379 27.0929 46.1597 26.7995 46.4503 26.4285C47.0321 25.6859 47.8891 24.6316 48.9904 23.3826C51.1924 20.8851 54.3745 17.6062 58.2951 14.4832ZM88.7121 5.60234C77.072 3.12572 66.3985 8.66814 58.6066 14.8748C54.7151 17.9747 51.5539 21.2315 49.3654 23.7137C48.2714 24.9544 47.4213 26.0012 46.8449 26.7371C46.5567 27.105 46.3361 27.3947 46.1886 27.5926C46.1149 27.6915 46.0597 27.7682 46.0226 27.8191C46.0042 27.8444 45.9898 27.863 45.9806 27.8758C45.9761 27.8821 45.9731 27.8873 45.9709 27.8904L45.9679 27.8943L45.965 27.8992L37.4513 39.3992L32.4582 46.8885L28.4718 53.7547L28.4728 53.7557L21.4894 67.4646L11.9953 89.451L5.00503 109.924L2.50796 120.408L1.01089 130.394V130.398C1.01056 130.4 1.00957 130.404 1.00894 130.408L0.979643 130.618C0.959933 130.765 0.932064 130.983 0.899565 131.262C0.834494 131.823 0.750833 132.634 0.676909 133.634C0.529011 135.634 0.420769 138.389 0.576323 141.407C0.888393 147.461 2.26149 154.501 6.44058 158.68C10.6096 162.849 16.5125 163.356 21.423 162.797C23.8729 162.518 26.0608 161.974 27.6369 161.501C28.4246 161.264 29.0589 161.045 29.4953 160.886C29.7135 160.806 29.8824 160.741 29.9962 160.696C30.0531 160.674 30.0964 160.656 30.1252 160.644L30.1574 160.632L39.633 155.643L48.4484 149.472C47.933 149.605 47.2918 149.765 46.5529 149.929C44.5618 150.374 41.862 150.877 39.0343 151.107C36.2097 151.337 33.2402 151.297 30.7169 150.646C28.1929 149.995 26.0806 148.723 25.0373 146.463C24.5182 145.338 24.2412 143.841 24.1447 142.1C24.048 140.356 24.1312 138.348 24.3429 136.192C24.7663 131.88 25.7062 126.952 26.7697 122.302C27.8335 117.65 29.0228 113.271 29.9455 110.054C30.4068 108.446 30.8016 107.129 31.0812 106.213C31.221 105.755 31.3323 105.397 31.4084 105.154C31.4464 105.033 31.4754 104.939 31.4953 104.877C31.5052 104.845 31.5127 104.821 31.5177 104.805C31.5202 104.798 31.5223 104.792 31.5236 104.788C31.5242 104.786 31.5255 104.783 31.5255 104.783V104.781L31.5285 104.773L31.5314 104.766L38.0314 88.2664L38.0343 88.2576L38.0392 88.2488L45.5392 72.7488L45.5431 72.7391L45.549 72.7303L55.049 56.7303L55.0509 56.7273C55.0527 56.7243 55.0553 56.7195 55.0587 56.7137C55.0656 56.702 55.0756 56.6846 55.089 56.6619C55.1162 56.616 55.157 56.5474 55.2101 56.4588C55.3163 56.2817 55.4734 56.022 55.6779 55.6912C56.0873 55.0291 56.687 54.0814 57.4464 52.9383C58.9652 50.6523 61.1262 47.5823 63.6955 44.449C66.2639 41.3167 69.2447 38.115 72.4035 35.5691C75.5589 33.026 78.9128 31.1198 82.2257 30.6102C83.9231 30.349 85.66 30.8123 87.3869 31.7918C89.113 32.7708 90.8439 34.2743 92.5412 36.1209C95.9358 39.814 99.2282 44.9173 102.107 50.0691C104.986 55.2236 107.459 60.4392 109.211 64.365C110.087 66.3279 110.783 67.9692 111.26 69.1199C111.499 69.6952 111.683 70.1477 111.808 70.4568C111.87 70.6112 111.917 70.7303 111.948 70.8103C111.964 70.8502 111.976 70.8807 111.985 70.9012C111.989 70.9113 111.991 70.9194 111.993 70.9246C111.994 70.9272 111.996 70.9305 111.996 70.9305V70.9324L111.999 70.9393L121.498 97.2703L124.985 106.663L124.987 106.671L127.983 115.656L134.464 128.62C134.467 128.624 134.471 128.629 134.475 128.635C134.487 128.652 134.504 128.679 134.528 128.713C134.577 128.781 134.648 128.881 134.74 129.009C134.925 129.263 135.195 129.626 135.532 130.056C136.208 130.919 137.155 132.051 138.239 133.136C139.326 134.222 140.541 135.251 141.753 135.914C142.969 136.579 144.142 136.855 145.171 136.512C145.656 136.351 146.164 135.89 146.681 135.145C147.193 134.407 147.69 133.423 148.167 132.271C149.121 129.968 149.977 127.03 150.694 124.128C151.412 121.228 151.989 118.373 152.387 116.243C152.586 115.178 152.741 114.295 152.845 113.679C152.897 113.37 152.936 113.127 152.963 112.963C152.976 112.881 152.987 112.817 152.993 112.775L142.029 81.4461L133.529 58.9461L124.534 38.4578L124.533 38.4549C124.532 38.4517 124.529 38.4467 124.527 38.4402C124.521 38.4272 124.512 38.4075 124.5 38.3816C124.476 38.3293 124.44 38.2506 124.392 38.1482C124.295 37.9436 124.15 37.6424 123.957 37.2566C123.571 36.4848 122.993 35.3754 122.226 34.0281C120.691 31.3334 118.402 27.6884 115.381 23.8885C109.334 16.2827 100.379 8.08487 88.7121 5.60234Z" fill="#0717B2"/>
<path d="M95.5861 93.9763C100.904 100.476 96.0861 108.976 92.5861 112.476L71.5861 130.976L49.7502 148.75C49.7502 148.75 39.5861 153.976 30.2502 150.75C20.9142 147.524 24.7502 136.75 24.7502 136.75L48.0861 118.476L71.5861 98.9763C83.5861 87.9763 90.2678 87.4762 95.5861 93.9763Z" fill="url(#paint1_linear_17276_76620)"/>
<path d="M162.75 0C172.277 0 180 7.72309 180 17.25C180 26.7769 172.277 34.5 162.75 34.5C153.223 34.5 145.5 26.7769 145.5 17.25C145.5 7.72309 153.223 0 162.75 0Z" fill="#1036FE"/>
<path d="M179.5 17.25C179.5 7.99923 172.001 0.5 162.75 0.5C153.499 0.5 146 7.99923 146 17.25C146 26.5008 153.499 34 162.75 34V34.5C153.223 34.5 145.5 26.7769 145.5 17.25C145.5 7.72309 153.223 0 162.75 0C172.277 0 180 7.72309 180 17.25C180 26.7769 172.277 34.5 162.75 34.5V34C172.001 34 179.5 26.5008 179.5 17.25Z" fill="#0717B2"/>
<path d="M86.0478 89.668C88.0107 89.3161 89.7707 89.523 91.3818 90.2402C92.9894 90.956 94.4332 92.1733 95.7792 93.8184C98.5051 97.15 98.6255 100.992 97.6327 104.421C96.6418 107.843 94.5372 110.879 92.7626 112.653L92.7577 112.658L92.7509 112.664L71.7441 131.17L49.9081 148.944L49.8876 148.96L49.8642 148.973L49.8329 148.988C49.8127 148.998 50.1367 148.771 50.0975 148.79C50.0192 148.828 49.5499 149.126 49.4003 149.195C49.1007 149.334 48.6629 149.527 48.1093 149.748C47.0021 150.191 45.4283 150.748 43.5605 151.203C39.8294 152.112 34.9005 152.621 30.1689 150.986C27.7859 150.163 26.2286 148.851 25.2431 147.338C24.26 145.828 23.8559 144.134 23.7499 142.557C23.644 140.98 23.8352 139.509 24.0517 138.435C24.1601 137.897 24.275 137.457 24.3632 137.15C24.4073 136.997 24.445 136.877 24.4716 136.795C24.4849 136.754 24.4955 136.722 24.5029 136.7C24.5065 136.69 24.5097 136.681 24.5117 136.676C24.5126 136.673 24.5136 136.669 24.5136 136.669L24.5146 136.667L24.539 136.598L24.5956 136.553L47.9316 118.279L71.4169 98.792C77.4229 93.2865 82.1384 90.3688 86.0478 89.668ZM91.1786 90.6973C89.6661 90.0239 88.008 89.8245 86.1357 90.1602C82.3747 90.8344 77.7487 93.6658 71.7548 99.1602L71.746 99.1689L48.246 118.669L48.2402 118.673L24.9628 136.9C24.9582 136.914 24.9531 136.931 24.9472 136.949C24.9222 137.026 24.8861 137.141 24.8437 137.288C24.7586 137.583 24.6473 138.011 24.5419 138.533C24.331 139.58 24.1469 141.004 24.249 142.523C24.351 144.043 24.7386 145.648 25.662 147.065C26.5831 148.479 28.0474 149.724 30.332 150.514C34.9361 152.105 39.7575 151.614 43.4423 150.717C45.2824 150.269 46.8336 149.72 47.9238 149.284C48.4685 149.066 48.8978 148.876 49.1904 148.741C49.3367 148.674 49.4492 148.62 49.5243 148.583C49.5617 148.565 49.5896 148.55 49.6083 148.541L49.6132 148.538L71.4286 130.782L92.4111 112.297C94.136 110.571 96.19 107.609 97.1533 104.282C98.115 100.961 97.9848 97.3031 95.3925 94.1348C94.0796 92.5301 92.6944 91.3722 91.1786 90.6973Z" fill="#0717B2"/>
<path d="M163.75 47.75C151.75 47.75 151.75 61.25 151.75 61.25C152.25 85.9166 152.25 133.45 145.25 136.25C138.25 139.05 127.25 114.25 127.25 114.25C127.25 114.25 135.206 140.229 139.75 148.75C143.75 156.25 147.728 161.476 158.25 160.75C172.75 159.75 173.25 124.75 173.25 124.75L174.25 61.75C174.25 61.75 175.75 47.75 163.75 47.75Z" fill="#1036FE"/>
<path d="M163.75 47.5C166.802 47.5 169.018 48.392 170.615 49.7471C172.208 51.0987 173.167 52.895 173.738 54.6738C174.31 56.4527 174.5 58.2273 174.547 59.5537C174.571 60.2177 174.559 60.7717 174.541 61.1602C174.532 61.3543 174.521 61.5073 174.513 61.6123C174.509 61.6648 174.506 61.7057 174.503 61.7334C174.502 61.747 174.501 61.7574 174.5 61.7646L173.5 124.754V124.779C173.5 124.796 173.499 124.822 173.498 124.855C173.497 124.922 173.495 125.021 173.491 125.15C173.484 125.408 173.471 125.786 173.45 126.267C173.408 127.228 173.332 128.603 173.194 130.255C172.921 133.558 172.404 137.976 171.432 142.428C170.461 146.876 169.032 151.377 166.925 154.833C164.818 158.29 162.007 160.741 158.268 160.999C152.959 161.365 149.27 160.23 146.402 158.033C143.547 155.845 141.531 152.62 139.529 148.867C137.246 144.585 134.114 135.94 131.559 128.385C130.28 124.603 129.143 121.088 128.326 118.519C127.918 117.234 127.589 116.184 127.362 115.457C127.249 115.093 127.161 114.81 127.102 114.617C127.072 114.521 127.05 114.448 127.034 114.398C127.027 114.374 127.021 114.354 127.017 114.342C127.015 114.336 127.014 114.331 127.013 114.328L127.012 114.324L127.011 114.323L127.479 114.148L127.481 114.153C127.482 114.156 127.484 114.16 127.486 114.166C127.492 114.178 127.499 114.196 127.51 114.219C127.531 114.265 127.562 114.335 127.603 114.425C127.685 114.605 127.806 114.869 127.963 115.204C128.277 115.875 128.733 116.831 129.302 117.97C130.441 120.247 132.031 123.252 133.838 126.168C135.647 129.087 137.665 131.904 139.657 133.813C140.654 134.768 141.633 135.484 142.565 135.878C143.492 136.27 144.359 136.337 145.157 136.018C145.93 135.709 146.662 134.749 147.328 133.14C147.988 131.547 148.556 129.383 149.043 126.772C150.017 121.553 150.657 114.591 151.063 106.937C151.875 91.6292 151.75 73.5865 151.5 61.2549V61.208C151.501 61.1812 151.502 61.1416 151.503 61.0908C151.506 60.9894 151.513 60.8417 151.525 60.6543C151.548 60.2792 151.596 59.7442 151.691 59.1035C151.88 57.8235 152.26 56.1126 153.022 54.3984C153.784 52.6838 154.932 50.9572 156.662 49.6592C158.396 48.3589 160.7 47.5 163.75 47.5ZM163.75 48C160.801 48 158.604 48.8287 156.963 50.0596C155.319 51.2928 154.217 52.9412 153.479 54.6016C152.741 56.262 152.37 57.9256 152.185 59.1768C152.092 59.8016 152.046 60.3223 152.023 60.6855C152.011 60.8669 152.006 61.0092 152.003 61.1055C152.002 61.1536 152.001 61.1905 152 61.2148V61.25C152.25 73.5848 152.376 91.6391 151.563 106.963C151.156 114.624 150.515 121.613 149.535 126.864C149.046 129.489 148.47 131.692 147.791 133.331C147.12 134.953 146.32 136.091 145.343 136.482C144.391 136.863 143.383 136.767 142.369 136.339C141.36 135.912 140.331 135.15 139.312 134.174C137.273 132.221 135.228 129.362 133.412 126.432C131.594 123.498 129.997 120.478 128.855 118.193C128.751 117.987 128.654 117.785 128.559 117.591C128.637 117.838 128.717 118.097 128.803 118.366C129.619 120.934 130.755 124.447 132.032 128.225C134.591 135.789 137.71 144.393 139.971 148.632C141.969 152.379 143.943 155.518 146.706 157.636C149.458 159.745 153.019 160.86 158.233 160.501C161.743 160.259 164.433 157.96 166.497 154.573C168.562 151.186 169.977 146.748 170.944 142.321C171.909 137.898 172.424 133.504 172.696 130.214C172.833 128.569 172.908 127.201 172.95 126.245C172.971 125.767 172.984 125.391 172.991 125.136C172.995 125.008 172.997 124.91 172.998 124.845C172.999 124.812 173 124.787 173 124.771V124.747L174 61.7461V61.7344L174.001 61.7236L174.002 61.7217C174.002 61.7217 174.002 61.7179 174.002 61.7148C174.003 61.7087 174.004 61.6992 174.005 61.6865C174.007 61.6612 174.011 61.6232 174.015 61.5732C174.023 61.4732 174.033 61.3252 174.041 61.1367C174.058 60.7596 174.07 60.2196 174.047 59.5713C174.001 58.2728 173.815 56.5471 173.262 54.8262C172.709 53.1053 171.792 51.4012 170.291 50.1279C168.794 48.8582 166.698 48 163.75 48Z" fill="#0717B2"/>
<defs>
<linearGradient id="paint0_linear_17276_76620" x1="170.621" y1="116.015" x2="134.863" y2="91.7948" gradientUnits="userSpaceOnUse">
<stop stop-color="#0717B2"/>
<stop offset="1" stop-color="#1036FE"/>
</linearGradient>
<linearGradient id="paint1_linear_17276_76620" x1="164.3" y1="23.7119" x2="20.54" y2="134.94" gradientUnits="userSpaceOnUse">
<stop offset="0.606754" stop-color="#1036FE"/>
<stop offset="1" stop-color="#0717B2"/>
</linearGradient>
</defs>
</svg>
